<svg xmlns="http://www.w3.org/2000/svg" width="876.325" height="876.325" viewBox="0 0 876.325 876.325">
  <path d="M345.347 496.045l8.928 9.286m512.05-67.169a428.162 428.162 0 0 1-428.163 428.163A428.162 428.162 0 0 1 10 438.162 428.162 428.162 0 0 1 438.162 10a428.162 428.162 0 0 1 428.163 428.162zM213.918 95.688c14.625 19.415 31.8 40.383 62.857 55.714 107.806 46.057 166.362 72.514 221.786 104.286 53.262 32.426 97.063 79.13 145.714 136.786 6.407 9.266 20.817 19.528 8.929 51.07 25.544 16.805 14.382 40.12-.357 58.215 17.056 63.944-20.494 72.66-65 71.072-3.952 25.58-20.007 48.421-56.786 41.785-93.833-36.501-141.202-88.508-185.714-118.571l35.357 66.071c19.109 45.608-44.264 63.704-63.214 45.715-24.818-29.7-26.537-38.206-111.072-113.572-29.106-26.034-37.194-44.799-36.428-67.5 2.387-16.591.58-38.342-9.643-54.286-29.21-35.89-73.635-82.276-111.277-108.8 7.273-16.02 13.767-31.944 23.563-48.28 14.614-26.02 35.104-51.489 54.772-71.83 27.94-28.901 48.232-47.46 75.673-60.984zm196.429 334.286c118.474 90.39 144.66 97.411 177.5 142.857M445.968 374.989c21.658 18.492 38.683 33.998 89.399 71.216 53.26 35.53 86.705 52.942 116.673 67.175M475.768 319.178c22.798 24.357 44.335 52.008 83.59 77.024 31.884 23.577 60.628 35.77 93.846 47.343" stroke-width="20" stroke="#000" fill="none" stroke-linejoin="round" stroke-linecap="round"/>
</svg>
