<svg xmlns="http://www.w3.org/2000/svg" viewBox="0 0 876.325 876.325" height="876.325" width="876.325">
  <path d="M866.325 438.162a428.162 428.162 0 0 1-428.163 428.163A428.162 428.162 0 0 1 10 438.162 428.162 428.162 0 0 1 438.162 10a428.162 428.162 0 0 1 428.163 428.162zm-215.961-218.66c-45.325 72.466-53.428 148.35-78.492 207.791M374.664 157.27c23.565 41.229 29.579 175.99 42.475 250m125.24 19.168c25.04-3.913 36.01 9.37 45.05 25.32m-195.168-25.07c15.596-22.457 32.562-20.273 49.757-13.957m-77.09 161.824c68.303-6.792 107.65 30.16 120.398 107.29M325.513 846.589l-.607-99.514c-70.376-63.372-84.47-86.154-108.01-125-23.884-36.311-91.482-56.464-111.65-95.874-18.383-40.373.981-57.424 29.126-62.5 32.84-5.641 49.42.8 61.894 7.888 41.666 24.272 101.431 73.43 120.145 66.141 10.019-162.28-.437-226.742-3.64-325.85.207-33.774 19.748-53.097 61.893-54.611 16.151-50.898 80.908-54.353 84.951-15.777l35.801 242.112 81.31-205.097c18.642-38.158 88.9-15.065 73.638 40.995-4.427 29.11-13.996 15.338-12.014 22.312 42.844-2.636 55.746 9.884 56.338 35.592-81.538 239.28-27.912 195.915-39.684 205.712 10.312-6.949 2.436 100.581-6.372 126.517-21.75 95.853-45.92 85.005-67.658 118.022l1.214 111.65" fill="none" stroke="#000" stroke-width="20" stroke-linecap="round" stroke-linejoin="round"/>
</svg>
