<svg xmlns="http://www.w3.org/2000/svg" viewBox="0 0 876.325 876.325" height="876.325" width="876.325">
  <path d="M866.325 438.162a428.162 428.162 0 0 1-428.163 428.163A428.162 428.162 0 0 1 10 438.162 428.162 428.162 0 0 1 438.162 10a428.162 428.162 0 0 1 428.163 428.162zM310.95 260.424c43.122-13.3 111.183-40.465 127.427-48.543 14.526-8.933 33.652-1.996 53.702 0-8.45-.855 205.058 87.075 200.85 102.548m-514.26 458.738c1.099-37.04.072-78.335-16.384-150.485-7.016-33.491-17.501-56.112-1.214-162.622 9.305-33.604 18.609-62.849 27.913-124.393 6.13-28.142-7.568-51.807 44.903-90.413 54.428-26.027 104.4-46.961 169.296-84.951 18.09-9.78 35.75-17.541 66.14-4.854 75.478 34.136 162.579 76.022 211.166 92.233 35.771 14.38 52.097 32.456 15.777 61.286-10.91 32.3-13.498 61.535-61.894 54.005-87.253-22.162-261.979-58.043-266.99-2.427.165 36.183 38.848 70.927 103.155 46.723 24.07-5.115 54.814-22.888 78.884-37.621 70.245-35.408 101.107 43.431 79.49 55.218l-112.864 88.592-103.155 89.806c-10.137 10.09-19.944 20.51-18.204 42.476-3.538 92.48 8.33 146.45 15.17 212.985" fill="none" stroke="#000" stroke-width="20" stroke-linecap="round" stroke-linejoin="round"/>
</svg>
