<?xml version="1.0" standalone="no"?>
<!DOCTYPE svg PUBLIC "-//W3C//DTD SVG 20010904//EN"
 "http://www.w3.org/TR/2001/REC-SVG-20010904/DTD/svg10.dtd">
<svg version="1.0" xmlns="http://www.w3.org/2000/svg"
 width="200.000000pt" height="200.000000pt" viewBox="0 0 200.000000 200.000000"
 preserveAspectRatio="xMidYMid meet">

<g transform="translate(0.000000,200.000000) scale(0.100000,-0.100000)"
fill="#000000" stroke="none">
<path d="M838 1980 c-240 -41 -426 -176 -531 -385 -33 -67 -73 -197 -82 -266
-11 -92 -22 -89 308 -89 156 0 289 4 297 10 9 6 16 34 21 85 9 110 55 164 147
173 103 9 162 -34 162 -120 0 -97 -60 -185 -209 -307 -137 -112 -203 -186
-250 -284 -65 -131 -102 -318 -69 -345 12 -9 86 -12 304 -10 l289 3 7 25 c4
14 14 57 22 95 20 90 83 216 140 281 25 28 85 78 133 112 193 131 266 263 249
449 -27 298 -240 499 -604 569 -78 15 -256 17 -334 4z m387 -99 c267 -69 435
-232 464 -451 24 -185 -31 -281 -249 -433 -128 -89 -230 -244 -265 -402 l-17
-75 -224 0 -224 0 0 23 c0 39 29 139 61 207 43 92 101 163 194 235 192 151
278 275 278 404 0 71 -15 111 -55 148 -51 48 -173 67 -259 42 -21 -7 -54 -25
-75 -42 -38 -32 -84 -115 -84 -154 0 -54 6 -53 -237 -53 l-225 0 7 38 c24 130
93 261 184 353 134 133 309 193 541 184 60 -2 139 -13 185 -24z"/>
<path d="M638 349 c-16 -9 -18 -28 -18 -162 0 -106 4 -157 12 -165 9 -9 89
-12 300 -12 274 0 288 1 298 19 5 11 10 82 10 160 0 114 -3 142 -16 155 -13
14 -54 16 -292 16 -170 0 -284 -5 -294 -11z m512 -169 l0 -90 -225 0 -225 0 0
90 0 90 225 0 225 0 0 -90z"/>
</g>
</svg>
