<svg xmlns="http://www.w3.org/2000/svg" width="876.325" height="876.325" viewBox="0 0 876.325 876.325">
  <path d="M866.325 438.162a428.162 428.162 0 0 1-428.163 428.163A428.162 428.162 0 0 1 10 438.162 428.162 428.162 0 0 1 438.162 10a428.162 428.162 0 0 1 428.163 428.162zm-342.972 31.905c27.99 9.621 49.089 33.512 64.479 63.823m-92.019-54.205c-12.634 49.174-6.615 47.612-5.683 59.888m26.666 21.857c-2.532-21.825-19.442-16.715-26.666-21.857m-29.07 45.244c19.03-30.353 33.031-59.712 75.626-94.204 5.07-2.706 10.691-.545 12.459 1.53 4.338 4.652 7.449 8.541 12.24 26.884 4.764 19.748 6.086 40.872 5.027 62.949-1.148 17.74-6.779 32.337-20.546 43.933-21.05 21.36-58.308 37.535-93.33 54.424m-63.823-220.32c-7.146 38.53-13.381 74.937-17.049 105.352-5.169 38.633-5.203 52.673-5.135 76.641M342.813 393.13c-14.692 43.835-22.198 80.484-28.852 116.28-4.244 28.706-7.849 57.412-10.928 86.117m-12.24-266.22c-25.25 76.803-28.373 129.83-40.217 182.726M692.09 96.31L566.63 205.159c-45.174-3.8-89.604-4.624-132.454.874-48.84 6.633-95.51 17.363-138.137 31.474-32.404 11.596-46.114 27.642-54.206 45.026-10.22 27.47-15.658 57.809-20.109 88.74-5.923 52.507-5.843 76.495-7.431 108.412 1.74 8.503-5.508 20.267 36.256 27.778l1.338 22.493c3.871 32.111 29.683 41.213 50.709 50.709l.437 14.862c4.178 33.697 39.109 36.503 59.014 38.906 9.403 15.342 10.788 33.513 38.469 42.403 14.238 4.091 24.222 5.477 52.02 3.497 4.377 9.096 8.576 18.59 17.486 17.486 48.607-3.125 115.909-27.08 164.803-48.96 26.291-17.054 60.245-66.722 64.697-103.603 3.99-35.519 7.183-69.446 6.557-95.734l149.503-106.226" fill="none" stroke="#000" stroke-width="20" stroke-linecap="round" stroke-linejoin="round"/>
</svg>
