<svg xmlns="http://www.w3.org/2000/svg" viewBox="0 0 876.325 876.325" height="876.325" width="876.325">
  <path d="M866.325 438.162a428.162 428.162 0 0 1-428.163 428.163A428.162 428.162 0 0 1 10 438.162 428.162 428.162 0 0 1 438.162 10a428.162 428.162 0 0 1 428.163 428.162zM380.732 645.74c79.965-11.942 139.086-37.008 175.364-76.457m-235.437-8.495c115.112-15.857 152.371-22.868 199.029-30.946 29.74-5.798 47.77-2.006 48.544 20.63l-12.136 18.811c28.367 3.187 59.732 23.357 46.723 47.937l-35.8 60.073M460.828 333.24c-.583 21.5-7.446 45.092.607 63.713 13.331 17.817 18.134 44.164 25.485 67.962 13.566 9.638 20.742 10.252 42.476-4.855 13.395-10.282 18.097-26.393 20.024-41.262 1.905-18.406 4.98-36.812 8.495-55.218 4.258-15.276 31.644-7.954 31.554.606l-.607 31.554c-8.248 86.961 41.883 88.302 79.49 108.01M846.144 325.35l-108.01-4.247c-31.72-25.099-68.4-47.717-109.83-67.961-27.028-16.05-52.052-15.062-75.849-3.641-34.71 17.792-68.087 38.819-91.626 83.738L202.94 256.177c-40.131-15.408-77.837 26.564-34.587 62.5 79.303 46.548 175.223 81.31 244.539 121.966-97.828 23.116-193.757 31.042-290.049 41.869-28.03 5.743-39.547 76.408 6.675 78.883l191.14-.607c9.741 29.346-9.007 61.54 60.074 84.952 8.89 21.937 1.292 46.002 57.039 61.893 38.382 9.471 81.158.634 129.247-30.34 71.296 5.111 84.772 5.361 100.728-1.82 41.158-19.8 69.043-48.791 89.2-83.131l77.062-1.214" fill="none" stroke="#000" stroke-width="20" stroke-linecap="round" stroke-linejoin="round"/>
</svg>
